<?xml version="1.0" standalone="no"?>
<!DOCTYPE svg PUBLIC "-//W3C//DTD SVG 20010904//EN"
 "http://www.w3.org/TR/2001/REC-SVG-20010904/DTD/svg10.dtd">
<svg version="1.0" xmlns="http://www.w3.org/2000/svg"
 width="512.000000pt" height="512.000000pt" viewBox="0 0 512.000000 512.000000"
 preserveAspectRatio="xMidYMid meet">
<metadata>
Created by potrace 1.14, written by Peter Selinger 2001-2017
</metadata>
<g transform="translate(0.000000,512.000000) scale(0.100000,-0.100000)"
fill="#000000" stroke="none">
<path d="M2380 5096 c-131 -34 -261 -111 -348 -206 -31 -33 -130 -163 -167
-220 -17 -25 -34 -49 -38 -55 -24 -30 -323 -454 -352 -498 l-18 -28 29 11 c43
17 233 67 278 74 21 4 41 8 45 10 3 2 31 7 61 11 30 4 58 9 61 11 3 2 26 6 50
9 51 6 109 14 159 20 170 23 718 24 835 1 11 -2 49 -7 85 -11 36 -4 74 -9 85
-11 11 -2 47 -9 80 -14 122 -20 311 -65 394 -95 24 -8 46 -13 49 -11 3 4 -53
93 -67 106 -3 3 -10 13 -16 22 -51 90 -433 626 -480 674 -65 66 -145 122 -233
161 -139 61 -344 78 -492 39z"/>
<path d="M2498 3955 c-2 -1 -68 -5 -148 -8 -80 -4 -154 -8 -165 -10 -11 -3
-50 -8 -88 -11 -167 -17 -407 -71 -577 -130 -317 -111 -509 -257 -587 -448
-20 -51 -25 -80 -26 -150 0 -81 3 -92 41 -171 40 -82 111 -167 187 -224 45
-34 106 -81 140 -108 17 -13 125 -96 240 -184 116 -89 217 -167 225 -174 109
-89 753 -578 777 -590 18 -10 44 -17 58 -17 27 0 95 25 105 38 3 5 34 30 69
57 62 47 344 271 405 321 16 13 43 34 59 46 16 13 134 105 261 206 127 101
300 238 384 304 190 150 260 220 306 307 117 223 26 462 -244 636 -159 104
-440 205 -690 250 -65 11 -169 27 -210 31 -25 3 -58 7 -75 9 -68 9 -441 25
-447 20z m272 -310 c63 -3 126 -8 140 -10 14 -2 42 -4 63 -4 l39 -1 -3 -102
c-3 -122 -24 -197 -75 -274 -177 -266 -571 -266 -747 -1 -55 83 -68 129 -74
260 l-5 117 38 1 c22 0 48 2 59 5 11 2 85 7 165 10 80 4 146 7 147 8 3 2 134
-3 253 -9z"/>
<path d="M854 2547 c-72 -93 -126 -178 -170 -271 -41 -88 -67 -164 -189 -551
-31 -99 -64 -200 -72 -225 -21 -65 -130 -411 -159 -505 -31 -102 -42 -273 -24
-370 48 -253 236 -484 465 -570 106 -40 180 -52 346 -54 l154 -2 0 823 1 823
22 67 c13 36 37 87 53 112 72 108 205 189 327 198 17 1 32 5 32 8 0 4 -15 17
-32 30 -18 13 -37 28 -43 32 -5 5 -96 75 -201 156 -105 81 -206 159 -225 174
-191 150 -228 178 -236 177 -4 0 -26 -23 -49 -52z"/>
<path d="M4179 2577 c-35 -31 -49 -41 -389 -312 l-301 -240 60 -11 c87 -15
183 -68 242 -132 55 -60 77 -98 105 -182 17 -52 18 -107 18 -878 l1 -824 170
5 c201 7 209 8 314 46 177 65 324 199 410 374 59 121 83 220 82 341 -1 105
-14 164 -85 390 -30 94 -111 351 -180 571 -141 445 -152 476 -210 590 -55 109
-179 284 -201 284 -5 0 -22 -10 -36 -22z"/>
<path d="M1586 1705 c-27 -14 -48 -34 -61 -60 -18 -39 -19 -67 -20 -825 0
-432 1 -793 3 -803 4 -16 63 -17 1056 -17 l1051 0 0 803 c-1 899 3 852 -73
899 -35 22 -47 23 -231 25 l-194 2 -61 -47 c-65 -49 -91 -71 -110 -87 -38 -35
-145 -109 -175 -122 -137 -59 -303 -51 -421 20 -19 12 -97 69 -173 128 l-138
106 -206 0 c-191 0 -209 -2 -247 -22z m1344 -481 c76 -44 101 -129 59 -204
-42 -75 -41 -75 -429 -75 -320 0 -347 2 -377 19 -63 38 -91 132 -58 196 19 36
72 77 105 82 14 1 169 3 345 3 304 -1 322 -2 355 -21z"/>
</g>
</svg>
