<?xml version="1.0" standalone="no"?>
<!DOCTYPE svg PUBLIC "-//W3C//DTD SVG 20010904//EN"
 "http://www.w3.org/TR/2001/REC-SVG-20010904/DTD/svg10.dtd">
<svg version="1.0" xmlns="http://www.w3.org/2000/svg"
 width="850.000000pt" height="850.000000pt" viewBox="0 0 850.000000 850.000000"
 preserveAspectRatio="xMidYMid meet">
<metadata>
Created by potrace 1.14, written by Peter Selinger 2001-2017
</metadata>
<g transform="translate(0.000000,850.000000) scale(0.100000,-0.100000)"
fill="#000000" stroke="none">
<path d="M4219 8475 c-2 -2 -22 -6 -45 -9 -22 -4 -55 -11 -73 -16 -17 -5 -34
-9 -36 -9 -8 0 -118 -31 -135 -38 -8 -3 -17 -7 -20 -8 -80 -28 -188 -80 -299
-146 -115 -68 -311 -238 -422 -366 -72 -82 -203 -251 -234 -301 -6 -10 -36
-55 -66 -102 -169 -260 -374 -654 -534 -1025 -26 -60 -51 -117 -56 -125 -5 -8
-12 -22 -15 -30 -13 -33 -24 -60 -70 -170 -27 -63 -49 -117 -50 -120 0 -3 -8
-22 -17 -44 -9 -21 -17 -40 -17 -42 0 -2 -9 -23 -19 -47 -11 -23 -31 -73 -46
-112 -14 -38 -32 -83 -39 -100 -43 -98 -48 -124 -44 -212 4 -73 10 -99 37
-153 44 -90 96 -169 158 -240 12 -14 31 -36 43 -50 38 -44 125 -133 199 -202
39 -38 71 -71 71 -76 0 -4 -15 -16 -32 -27 -18 -10 -37 -23 -43 -27 -8 -7
-206 -142 -275 -188 -8 -5 -55 -38 -105 -73 -139 -96 -233 -160 -260 -177 -52
-32 -111 -76 -132 -97 -12 -13 -24 -23 -27 -23 -9 0 -56 -51 -56 -60 0 -6 -4
-10 -9 -10 -11 0 -111 -149 -145 -217 -27 -55 -90 -211 -181 -448 -31 -82 -63
-163 -70 -180 -7 -16 -45 -113 -85 -215 -39 -102 -75 -194 -80 -205 -10 -24
-48 -121 -96 -248 -19 -51 -37 -99 -41 -107 -3 -8 -7 -22 -8 -30 -2 -8 -10
-44 -20 -79 -24 -91 -28 -129 -28 -281 0 -137 2 -152 29 -250 58 -213 206
-446 427 -671 17 -18 23 -29 15 -30 -7 0 -243 -2 -524 -2 -417 -2 -514 -5
-527 -16 -10 -7 -17 -10 -17 -6 0 14 -59 -60 -68 -85 -23 -65 9 -148 70 -185
32 -19 51 -20 697 -21 l663 -1 30 -34 c16 -19 43 -50 61 -69 84 -93 80 -81 83
-208 10 -365 13 -381 84 -428 l39 -26 2414 0 c1863 -1 2419 2 2436 12 36 19
62 43 78 74 14 27 17 66 27 384 l3 102 64 72 c35 39 74 83 87 96 l23 26 637 1
c434 1 645 5 662 12 27 12 61 46 78 79 31 60 4 154 -56 194 l-37 25 -495 2
c-556 2 -519 1 -505 11 6 4 46 47 90 97 44 49 92 103 107 120 16 16 28 35 28
42 0 6 3 13 8 15 27 12 130 188 175 299 46 115 69 217 71 310 0 43 5 79 9 79
5 0 5 5 2 11 -4 5 -9 38 -11 72 -9 134 -46 265 -149 528 -79 198 -199 506
-241 614 -13 33 -28 74 -35 90 -7 17 -13 32 -14 35 -1 3 -5 14 -10 25 -4 11
-37 94 -72 185 -68 175 -138 313 -198 389 -63 80 -143 151 -249 223 -67 45
-122 85 -124 90 -2 4 -8 8 -14 8 -5 0 -20 8 -33 18 -12 9 -31 23 -41 29 -11 7
-44 30 -74 51 -30 21 -125 85 -210 142 -85 58 -157 108 -160 111 -3 3 -20 14
-37 24 -18 11 -33 22 -33 25 0 3 62 68 138 145 76 77 156 163 178 190 21 28
41 52 44 55 17 17 60 80 60 88 0 6 3 12 8 14 12 5 42 64 63 124 20 61 26 185
10 226 -5 13 -16 41 -25 63 -28 71 -39 100 -41 105 -1 3 -9 23 -19 45 -10 22
-19 47 -21 56 -2 8 -12 35 -23 60 -11 24 -37 85 -57 134 -78 187 -215 504
-250 575 -19 41 -35 76 -35 78 2 4 -223 456 -230 462 -3 3 -18 30 -34 60 -16
30 -32 57 -35 60 -3 3 -17 25 -30 50 -36 68 -184 292 -253 384 -125 165 -272
320 -401 424 -40 31 -74 60 -77 63 -3 4 -15 9 -27 13 -13 4 -23 11 -23 16 0 5
-16 17 -35 26 -19 9 -35 20 -35 25 0 5 -9 9 -19 9 -11 0 -22 4 -26 9 -5 8
-111 65 -125 67 -3 0 -22 8 -44 17 -21 9 -45 17 -52 17 -8 0 -14 5 -14 12 0 6
-3 9 -6 6 -5 -5 -62 10 -114 29 -8 4 -28 8 -45 10 -16 2 -44 8 -60 14 -32 9
-179 21 -186 14z m91 -316 c0 -3 6 -6 13 -6 40 -1 163 -33 247 -65 56 -21 210
-101 210 -109 0 -3 14 -12 30 -19 17 -7 30 -16 30 -20 0 -4 9 -11 19 -16 41
-19 186 -154 276 -257 148 -167 298 -391 448 -667 59 -109 115 -220 110 -220
-2 0 -295 290 -651 645 -355 355 -656 648 -669 651 -41 11 -73 -4 -89 -41 -13
-31 -13 -39 0 -63 8 -15 376 -387 816 -827 441 -440 806 -809 810 -820 5 -11
38 -87 74 -170 36 -82 64 -151 62 -152 -2 -2 -19 4 -39 12 -26 10 -286 264
-827 805 -747 746 -793 790 -826 790 -25 0 -42 -8 -59 -25 -51 -56 -70 -33
671 -773 617 -617 680 -683 647 -677 -19 3 -39 7 -43 10 -3 2 -20 6 -36 9 -16
3 -51 10 -79 16 -27 6 -65 13 -82 16 -27 5 -120 92 -508 480 -262 261 -479
474 -483 475 -47 6 -56 3 -82 -23 -16 -15 -27 -36 -25 -45 2 -10 4 -24 4 -31
1 -8 178 -191 395 -408 217 -217 391 -396 387 -399 -5 -2 -19 -2 -32 0 -13 3
-49 7 -79 10 -163 14 -125 -9 -346 213 -110 109 -208 204 -219 210 -29 15 -74
3 -92 -25 -36 -54 -30 -65 110 -206 73 -73 137 -139 144 -147 10 -13 -23 -15
-260 -15 -235 -1 -421 -7 -572 -20 -178 -15 -180 -15 -365 -41 -19 -2 -60 -9
-90 -14 -30 -5 -69 -12 -87 -15 -63 -10 -269 -56 -323 -71 -30 -9 -62 -17 -70
-19 -8 -2 -62 -20 -120 -40 -177 -61 -167 -59 -151 -27 11 23 28 62 106 242
77 176 151 338 165 360 6 8 15 26 20 40 19 45 35 75 45 82 5 4 7 8 3 8 -7 0
23 60 112 225 18 33 37 66 42 73 6 6 7 12 2 12 -5 0 -4 4 1 8 6 4 33 45 60 92
75 131 243 378 285 420 3 3 27 32 55 64 102 122 296 292 384 337 14 8 28 16
31 20 14 15 195 94 240 104 8 2 27 8 42 14 15 6 49 13 75 17 27 3 51 9 55 12
9 9 78 9 78 1z m1013 -2388 c55 -27 69 -52 55 -96 -5 -16 -11 -39 -13 -50 -2
-11 -10 -46 -18 -77 -8 -32 -12 -58 -9 -58 2 0 -1 -6 -7 -14 -6 -8 -11 -18 -9
-22 2 -11 -42 -155 -84 -274 -16 -47 -31 -92 -33 -101 -2 -9 -8 -25 -14 -35
-9 -16 -31 -66 -36 -84 -1 -5 -19 -44 -53 -120 -9 -19 -16 -37 -17 -40 -18
-61 -73 -118 -191 -196 -72 -47 -180 -103 -201 -105 -5 0 -12 -4 -18 -9 -16
-12 -192 -67 -280 -86 -98 -22 -171 -22 -247 2 -9 3 -26 7 -37 9 -12 3 -29 7
-39 9 -151 34 -411 157 -488 230 -6 6 -27 24 -47 39 -28 22 -87 116 -87 140 0
3 -15 38 -34 79 -31 68 -60 137 -62 148 0 3 -5 16 -11 30 -13 32 -74 210 -78
230 -2 8 -4 16 -4 18 -1 1 0 3 0 5 1 1 -5 18 -14 38 -8 20 -25 80 -37 135 -12
54 -28 119 -35 144 -17 61 -6 84 54 112 l49 24 999 -1 998 -1 48 -23z m1225
-2070 c12 -6 29 -22 37 -34 17 -27 25 -95 13 -119 -5 -10 -4 -19 2 -23 6 -4 8
-10 5 -15 -3 -4 -7 -81 -10 -171 -3 -90 -7 -226 -10 -301 -3 -76 -7 -220 -10
-320 -5 -146 -12 -334 -16 -403 -1 -5 0 -21 0 -35 1 -14 0 -81 -3 -150 -2 -69
-7 -210 -11 -315 -3 -104 -8 -244 -10 -310 -2 -66 -7 -208 -11 -315 -5 -175
-10 -309 -13 -365 -1 -20 -8 -20 -2236 -20 -1980 0 -2235 2 -2236 15 -3 45
-16 404 -25 690 -3 91 -7 230 -10 310 -2 80 -6 210 -8 290 -5 150 -12 347 -22
605 -3 83 -7 218 -9 300 -4 130 -15 501 -17 560 -3 81 24 124 87 134 21 3
1040 6 2264 5 1724 0 2231 -3 2249 -13z m-57 -3210 c13 -1 18 -24 9 -51 -1 -3
-2 -30 -3 -60 l-2 -55 -2220 0 -2220 0 0 57 c0 32 -3 58 -7 58 -4 0 -5 7 -3
15 3 8 7 21 9 28 3 9 453 12 2212 11 1215 -1 2216 -2 2225 -3z"/>
<path d="M4297 5552 c1 -59 5 -159 7 -222 3 -63 5 -129 5 -146 l1 -32 110 -1
c126 -1 119 -16 55 124 -20 44 -46 100 -57 125 -12 25 -40 87 -64 138 -24 52
-44 98 -44 102 0 5 -4 11 -8 14 -5 3 -7 -43 -5 -102z"/>
<path d="M4177 3263 c-2 -1 -26 -5 -55 -8 -72 -7 -206 -51 -282 -92 -157 -84
-281 -205 -363 -353 -34 -62 -91 -200 -82 -200 3 0 0 -12 -6 -27 -15 -40 -23
-128 -22 -233 2 -178 70 -372 178 -506 26 -33 32 -54 15 -54 -21 0 -61 -78
-62 -121 -3 -77 10 -115 48 -148 39 -35 33 -33 170 -36 115 -2 133 -7 132 -32
-1 -24 12 -183 17 -208 2 -11 4 -30 4 -42 1 -22 4 -23 94 -21 51 1 98 -2 105
-6 7 -4 12 -3 12 1 0 9 32 8 75 0 11 -3 25 -2 30 2 13 8 65 8 65 0 0 -4 15 -4
33 0 17 4 41 6 52 5 64 -5 81 -6 88 -4 20 6 67 4 67 -3 0 -5 5 -5 11 -1 6 4
40 6 74 6 53 0 64 3 64 16 0 10 2 42 5 72 2 30 7 89 11 129 3 41 7 77 10 79 2
2 57 5 122 6 65 2 129 8 143 14 93 39 107 219 23 285 l-23 19 29 36 c30 39 61
91 93 155 18 36 41 92 38 92 -1 0 4 14 10 30 7 17 14 39 16 50 2 11 8 43 13
70 17 83 6 289 -18 375 -21 71 -93 233 -116 256 -5 6 -28 35 -50 65 -106 145
-335 287 -510 315 -11 2 -36 7 -55 10 -35 7 -198 13 -203 7z m-356 -933 c19
-3 40 -9 45 -13 6 -3 33 -9 60 -13 27 -3 58 -8 69 -10 11 -3 48 -7 83 -9 35
-3 67 -7 71 -10 5 -2 6 -24 4 -47 -9 -102 -68 -191 -152 -230 -51 -23 -154
-32 -184 -17 -10 6 -27 12 -39 14 -35 7 -105 73 -129 122 -35 73 -34 202 3
249 6 9 25 6 71 -8 34 -11 78 -24 98 -28z m1040 18 c33 -81 32 -158 -5 -228
-32 -62 -63 -92 -122 -121 -129 -62 -288 -8 -354 121 -22 42 -38 144 -24 153
5 2 38 8 74 12 64 6 85 9 145 19 43 7 173 42 220 59 22 8 43 15 46 16 4 0 13
-14 20 -31z m-661 -498 c20 -20 20 -25 5 -100 -3 -14 -8 -38 -11 -55 -11 -57
-46 -83 -89 -63 -34 15 -37 30 -18 116 23 111 66 149 113 102z m203 8 c16 -13
38 -80 41 -125 0 -13 4 -23 8 -23 10 0 5 -42 -8 -63 -11 -19 -46 -29 -70 -20
-16 6 -33 40 -40 83 -3 14 -9 41 -14 60 -12 46 -8 70 15 86 23 17 46 18 68 2z"/>
</g>
</svg>
